<svg xmlns="http://www.w3.org/2000/svg" xmlns:xlink="http://www.w3.org/1999/xlink" width="500" zoomAndPan="magnify" viewBox="0 0 375 374.999991" height="500" preserveAspectRatio="xMidYMid meet" version="1.0"><defs><g/><clipPath id="fc9a4a1596"><path d="M 17.378906 18.796875 L 359.765625 18.796875 L 359.765625 361.183594 L 17.378906 361.183594 Z M 17.378906 18.796875 " clip-rule="nonzero"/></clipPath><clipPath id="2e1c384f50"><path d="M 188.574219 18.796875 C 94.023438 18.796875 17.378906 95.445312 17.378906 189.992188 C 17.378906 284.539062 94.023438 361.183594 188.574219 361.183594 C 283.121094 361.183594 359.765625 284.539062 359.765625 189.992188 C 359.765625 95.445312 283.121094 18.796875 188.574219 18.796875 " clip-rule="nonzero"/></clipPath><clipPath id="7fcff66291"><path d="M 52.449219 145.664062 L 114.945312 145.664062 L 114.945312 182.242188 L 52.449219 182.242188 Z M 52.449219 145.664062 " clip-rule="nonzero"/></clipPath><clipPath id="467369d63e"><path d="M 94.957031 140.398438 L 130.277344 140.398438 L 130.277344 187.492188 L 94.957031 187.492188 Z M 94.957031 140.398438 " clip-rule="nonzero"/></clipPath><clipPath id="dd7e641bca"><path d="M 94.957031 175.71875 L 94.957031 152.171875 L 130.277344 140.398438 L 130.277344 187.492188 L 94.957031 175.71875 " clip-rule="nonzero"/></clipPath></defs><g clip-path="url(#fc9a4a1596)"><g clip-path="url(#2e1c384f50)"><path fill="#3a7bd5" d="M 17.378906 18.796875 L 359.765625 18.796875 L 359.765625 361.183594 L 17.378906 361.183594 Z M 17.378906 18.796875 " fill-opacity="1" fill-rule="nonzero"/></g></g><g fill="#ffffff" fill-opacity="1"><g transform="translate(0.0000045, 323.110538)"><g><path d="M 75.753906 0 L 146.683594 0 L 184.90625 -143.929688 L 223.46875 0 L 294.058594 0 L 291.648438 -25.136719 L 346.050781 -213.484375 L 359.824219 -241.03125 L 294.402344 -241.03125 L 294.746094 -213.484375 L 249.640625 -52.683594 L 208.664062 -212.105469 L 215.894531 -241.03125 L 155.292969 -241.03125 L 162.523438 -212.105469 L 120.171875 -52.683594 L 75.0625 -213.484375 L 75.40625 -241.03125 L 9.984375 -241.03125 L 23.757812 -213.484375 L 78.164062 -25.136719 Z M 75.753906 0 "/></g></g></g><g clip-path="url(#7fcff66291)"><path fill="#ffffff" d="M 114.945312 145.664062 L 114.945312 182.132812 L 52.566406 182.132812 L 52.566406 145.664062 Z M 114.945312 145.664062 " fill-opacity="1" fill-rule="nonzero"/></g><g clip-path="url(#467369d63e)"><g clip-path="url(#dd7e641bca)"><path fill="#ffffff" d="M 94.957031 187.492188 L 94.957031 140.398438 L 130.277344 140.398438 L 130.277344 187.492188 Z M 94.957031 187.492188 " fill-opacity="1" fill-rule="nonzero"/></g></g></svg>