<svg xmlns="http://www.w3.org/2000/svg" xmlns:xlink="http://www.w3.org/1999/xlink" width="430" zoomAndPan="magnify" viewBox="0 0 322.5 128.249994" height="171" preserveAspectRatio="xMidYMid meet" version="1.0"><defs><g/><clipPath id="e3ea24ddba"><path d="M 211.832031 11.148438 L 318.667969 11.148438 L 318.667969 117.988281 L 211.832031 117.988281 Z M 211.832031 11.148438 " clip-rule="nonzero"/></clipPath><clipPath id="3049b4de99"><path d="M 265.25 11.148438 C 235.75 11.148438 211.832031 35.066406 211.832031 64.570312 C 211.832031 94.070312 235.75 117.988281 265.25 117.988281 C 294.753906 117.988281 318.667969 94.070312 318.667969 64.570312 C 318.667969 35.066406 294.753906 11.148438 265.25 11.148438 " clip-rule="nonzero"/></clipPath><clipPath id="e6f01524d6"><path d="M 222.78125 50.738281 L 242.28125 50.738281 L 242.28125 62.148438 L 222.78125 62.148438 Z M 222.78125 50.738281 " clip-rule="nonzero"/></clipPath><clipPath id="6b2e9fbf01"><path d="M 236.039062 49.089844 L 247.058594 49.089844 L 247.058594 63.785156 L 236.039062 63.785156 Z M 236.039062 49.089844 " clip-rule="nonzero"/></clipPath><clipPath id="0581f34f10"><path d="M 236.039062 60.113281 L 236.039062 52.765625 L 247.058594 49.089844 L 247.058594 63.785156 L 236.039062 60.113281 " clip-rule="nonzero"/></clipPath></defs><g clip-path="url(#e3ea24ddba)"><g clip-path="url(#3049b4de99)"><path fill="#ffffff" d="M 211.832031 11.148438 L 318.667969 11.148438 L 318.667969 117.988281 L 211.832031 117.988281 Z M 211.832031 11.148438 " fill-opacity="1" fill-rule="nonzero"/></g></g><g fill="#3a7bd5" fill-opacity="1"><g transform="translate(206.41012, 106.106325)"><g><path d="M 23.636719 0 L 45.769531 0 L 57.695312 -44.910156 L 69.730469 0 L 91.757812 0 L 91.003906 -7.84375 L 107.980469 -66.613281 L 112.277344 -75.210938 L 91.863281 -75.210938 L 91.972656 -66.613281 L 77.894531 -16.4375 L 65.109375 -66.183594 L 67.367188 -75.210938 L 48.457031 -75.210938 L 50.714844 -66.183594 L 37.496094 -16.4375 L 23.421875 -66.613281 L 23.53125 -75.210938 L 3.117188 -75.210938 L 7.414062 -66.613281 L 24.390625 -7.84375 Z M 23.636719 0 "/></g></g></g><g clip-path="url(#e6f01524d6)"><path fill="#3a7bd5" d="M 242.28125 50.738281 L 242.28125 62.117188 L 222.515625 62.117188 L 222.515625 50.738281 Z M 242.28125 50.738281 " fill-opacity="1" fill-rule="nonzero"/></g><g clip-path="url(#6b2e9fbf01)"><g clip-path="url(#0581f34f10)"><path fill="#3a7bd5" d="M 236.039062 63.785156 L 236.039062 49.089844 L 247.058594 49.089844 L 247.058594 63.785156 Z M 236.039062 63.785156 " fill-opacity="1" fill-rule="nonzero"/></g></g><g fill="#ffffff" fill-opacity="1"><g transform="translate(1.491386, 87.316037)"><g><path d="M 41.476562 -13.785156 L 32.550781 -15.445312 L 32.550781 -14.03125 C 32.550781 -12.800781 32 -11.628906 31.015625 -10.707031 L 28.859375 -8.675781 C 28 -7.875 26.707031 -7.382812 25.414062 -7.382812 L 20.675781 -7.382812 C 19.382812 -7.382812 18.089844 -7.875 17.167969 -8.675781 L 15.078125 -10.769531 C 14.03125 -11.691406 13.476562 -12.859375 13.476562 -14.089844 L 13.476562 -28.984375 C 13.476562 -30.277344 14.089844 -31.382812 15.078125 -32.367188 L 17.167969 -34.398438 C 18.089844 -35.261719 19.382812 -35.691406 20.675781 -35.691406 L 25.414062 -35.691406 C 26.707031 -35.691406 27.9375 -35.261719 28.859375 -34.398438 L 31.015625 -32.429688 C 32 -31.507812 32.550781 -30.335938 32.550781 -29.046875 L 32.550781 -27.691406 L 41.476562 -29.351562 L 41.476562 -31.074219 C 41.476562 -33.167969 40.675781 -35.074219 39.199219 -36.550781 L 34.953125 -40.796875 C 33.476562 -42.273438 31.566406 -43.074219 29.476562 -43.074219 L 16.554688 -43.074219 C 14.460938 -43.074219 12.554688 -42.273438 11.078125 -40.796875 L 6.832031 -36.550781 C 5.355469 -35.074219 4.554688 -33.167969 4.554688 -31.074219 L 4.554688 -12 C 4.554688 -9.90625 5.355469 -8 6.832031 -6.523438 L 11.078125 -2.277344 C 12.554688 -0.800781 14.460938 0 16.554688 0 L 29.476562 0 C 31.566406 0 33.476562 -0.800781 34.953125 -2.277344 L 39.199219 -6.523438 C 40.675781 -8 41.476562 -9.90625 41.476562 -12 Z M 41.476562 -13.785156 "/></g></g></g><g fill="#ffffff" fill-opacity="1"><g transform="translate(44.992126, 87.316037)"><g><path d="M 42.027344 0 L 39.628906 -4.246094 L 29.167969 -33.167969 L 29.597656 -37.105469 L 13.414062 -37.105469 L 13.84375 -33.167969 L 3.445312 -4.246094 L 0.984375 0 L 12.246094 0 L 12.183594 -4.246094 L 13.597656 -8.429688 L 29.351562 -8.429688 L 30.769531 -4.246094 L 30.644531 0 Z M 15.875 -15.015625 L 21.476562 -31.261719 L 27.074219 -15.015625 Z M 15.875 -15.015625 "/></g></g></g><g fill="#ffffff" fill-opacity="1"><g transform="translate(86.462414, 87.316037)"><g><path d="M 12.859375 0 L 23.445312 0 L 22.460938 -4.246094 L 22.460938 -29.96875 L 30.707031 -29.96875 L 35.261719 -28.921875 L 33.84375 -37.105469 L 2.769531 -37.105469 L 1.355469 -28.921875 L 5.90625 -29.96875 L 13.84375 -29.96875 L 13.84375 -4.246094 Z M 12.859375 0 "/></g></g></g><g fill="#ffffff" fill-opacity="1"><g transform="translate(121.533693, 87.316037)"><g><path d="M 38.769531 -11.816406 L 30.214844 -13.476562 L 30.214844 -12.367188 C 30.214844 -11.507812 29.722656 -10.339844 28.738281 -9.660156 L 26.769531 -8.0625 C 25.84375 -7.382812 24.675781 -7.078125 23.628906 -7.078125 L 19.445312 -7.078125 C 18.335938 -7.078125 17.046875 -7.445312 16.308594 -8.0625 L 14.335938 -9.722656 C 13.414062 -10.460938 12.859375 -11.507812 12.859375 -12.492188 L 12.859375 -24.738281 C 12.859375 -25.785156 13.476562 -26.707031 14.335938 -27.382812 L 16.308594 -29.046875 C 17.105469 -29.722656 18.335938 -30.089844 19.445312 -30.089844 L 23.628906 -30.089844 C 24.613281 -30.089844 25.785156 -29.785156 26.769531 -29.046875 L 28.675781 -27.445312 C 29.597656 -26.769531 30.214844 -25.597656 30.214844 -24.800781 L 30.214844 -23.753906 L 38.769531 -25.292969 L 38.769531 -26.769531 C 38.769531 -28.550781 38.027344 -30.277344 36.675781 -31.507812 L 32.675781 -35.136719 C 31.261719 -36.429688 29.414062 -37.105469 27.566406 -37.105469 L 15.507812 -37.105469 C 13.351562 -37.105469 11.628906 -36.304688 10.339844 -35.136719 L 6.398438 -31.445312 C 5.046875 -30.214844 4.308594 -28.613281 4.308594 -26.769531 L 4.308594 -10.339844 C 4.308594 -8.554688 5.046875 -6.890625 6.398438 -5.660156 L 10.339844 -2.03125 C 11.691406 -0.738281 13.476562 0 15.507812 0 L 27.566406 0 C 29.414062 0 31.320312 -0.675781 32.675781 -1.96875 L 36.675781 -5.660156 C 38.027344 -6.890625 38.769531 -8.492188 38.769531 -10.339844 Z M 38.769531 -11.816406 "/></g></g></g><g fill="#ffffff" fill-opacity="1"><g transform="translate(162.01953, 87.316037)"><g><path d="M 39.753906 -32.921875 L 40.738281 -37.105469 L 30.214844 -37.105469 L 31.199219 -32.921875 L 31.199219 -22.03125 L 13.84375 -22.03125 L 13.84375 -32.921875 L 14.890625 -37.105469 L 4.308594 -37.105469 L 5.292969 -32.921875 L 5.292969 -4.246094 L 4.308594 0 L 14.890625 0 L 13.84375 -4.246094 L 13.84375 -14.890625 L 31.199219 -14.890625 L 31.199219 -4.246094 L 30.214844 0 L 40.738281 0 L 39.753906 -4.246094 Z M 39.753906 -32.921875 "/></g></g></g></svg>